<svg xmlns="http://www.w3.org/2000/svg" width="242" height="241" fill="none">
  <mask id="a" width="240" height="240" x="1" y="0" maskUnits="userSpaceOnUse" style="mask-type:alpha">
    <path fill="#D9D9D9" d="M121 240c66.274 0 120-53.726 120-120S187.274 0 121 0 1 53.726 1 120s53.726 120 120 120Z"/>
  </mask>
  <g mask="url(#a)">
    <path fill="#FFFAED" d="M241 0H1v240h240V0Z"/>
    <path fill="#9CC7F2" d="M163.64 107.048a2.276 2.276 0 0 0-4.55 0v68.104a2.276 2.276 0 0 0 4.55 0v-68.104ZM178.276 107.158a2.275 2.275 0 0 0-4.494.711l10.654 67.266a2.275 2.275 0 0 0 4.493-.712l-10.653-67.265Z"/>
    <path fill="#9CC7F2" d="M191.703 102.882H88.788a2.993 2.993 0 0 0-2.993 2.993v.021a2.993 2.993 0 0 0 2.993 2.994h102.915a2.993 2.993 0 0 0 2.993-2.994v-.021a2.993 2.993 0 0 0-2.993-2.993Z"/>
    <path fill="#F9AB2D" d="M164.813 102.882h-48.8l13.385-37.953a1.893 1.893 0 0 1 1.796-1.269h44.753a1.916 1.916 0 0 1 1.796 2.538l-12.93 36.684Z"/>
    <path fill="url(#b)" d="M163.352 100.679h-44.346l12.284-34.84h44.346l-12.284 34.84Z"/>
    <path fill="#F9AB2D" d="M165.484 99.937h-52.392v2.938h52.392v-2.938Z"/>
    <path fill="#F9AB2D" d="M153.607 99.937h-49.47a1.46 1.46 0 0 0-1.461 1.461v.016a1.46 1.46 0 0 0 1.461 1.461h49.47a1.46 1.46 0 0 0 1.461-1.461v-.016a1.46 1.46 0 0 0-1.461-1.461Z"/>
    <path fill="#271A38" d="M154.469 77.285a7.856 7.856 0 0 0-15.708-.311v12.403h14.176v-7.423a7.742 7.742 0 0 0 1.532-4.669Z"/>
    <path fill="#FFFAED" d="M159.019 91.724v-.168a3.878 3.878 0 0 0-.048-.527 4.91 4.91 0 0 0-4.909-4.405h-15.708a4.955 4.955 0 0 0-4.717 3.472l-2.969 9.84h28.662l-.311-8.212Z"/>
    <path fill="url(#c)" d="m142.281 86.624 2.298 5.818 4.311-5.818h-.839l-.359-2.443h-3.783l-.383 2.443h-1.245Z"/>
    <path fill="#EDB3B2" d="M145.945 85.02a5.196 5.196 0 1 0 0-10.392 5.196 5.196 0 0 0 0 10.391Z"/>
    <path fill="#271A38" d="M140.078 78.794a5.168 5.168 0 0 0 3.927-2.706c.407 1.34 3.185 2.73 5.795 2.442v12.045h4.669V77.884s.838-3.329-4.406-4.502c-5.244-1.173-5.603-1.556-7.734.335-2.131 1.892-2.251 5.077-2.251 5.077Z"/>
    <path fill="url(#d)" d="M152.625 95.124v4.813h-1.652l1.652-4.813Z"/>
    <path fill="url(#e)" d="M137.732 95.124v4.813h-1.652l1.652-4.813Z"/>
    <path fill="url(#f)" d="m130.189 88.132-1.748 11.805h4.502l.814-11.398-3.568-.407Z"/>
    <path fill="url(#g)" d="M133.924 82.313v3.065a.769.769 0 0 1-.766.766c-.431 0-2.347.072-1.581-.766.767-.838.791-3.065.791-3.065a.79.79 0 0 1 .79-.79.79.79 0 0 1 .766.79Z"/>
    <path fill="#EDB3B2" d="M133.038 84.564c-.79 0-1.652-.072-2.202.886-.551.958-.599 2.61-.767 3.568-.167.958.336 1.748 1.15 1.748h1.939l-.12-6.202Z"/>
    <path fill="url(#h)" d="M134.523 84.564h-1.963a.767.767 0 0 0-.767.767v.014c0 .423.344.766.767.766h1.963a.766.766 0 0 0 .766-.766v-.014a.766.766 0 0 0-.766-.767Z"/>
    <path fill="url(#i)" d="M134.906 86.12h-1.964a.766.766 0 0 0-.766.767v.014c0 .423.343.766.766.766h1.964a.766.766 0 0 0 .766-.766v-.014a.766.766 0 0 0-.766-.766Z"/>
    <path fill="url(#j)" d="M134.523 87.677h-1.963a.767.767 0 0 0-.767.766v.015c0 .423.344.766.767.766h1.963a.766.766 0 0 0 .766-.766v-.014a.766.766 0 0 0-.766-.767Z"/>
    <path fill="url(#k)" d="M134.14 89.21h-1.964a.766.766 0 0 0-.766.766v.014c0 .423.343.766.766.766h1.964a.766.766 0 0 0 .766-.766v-.014a.766.766 0 0 0-.766-.766Z"/>
    <path fill="#8A76E8" d="M186.89 85.33h-13.529v17.561h13.529v-17.56Z"/>
    <path fill="#8A76E8" d="M188.782 89.09h-3.544v1.1h2.922a1.698 1.698 0 0 1 1.7 1.7v4.694a1.672 1.672 0 0 1-1.052 1.556 1.672 1.672 0 0 1-.648.12h-2.922v1.102h3.544a2.129 2.129 0 0 0 2.155-2.131v-5.987a2.16 2.16 0 0 0-1.33-1.99 2.159 2.159 0 0 0-.825-.165Z"/>
    <path fill="#CC8269" d="M100.019 92.585s2.274-5.363 3.208-7.087c.934-1.724 3.664-2.299 5.316-3.88 1.652-1.58 2.706-3.256 3.64-2.896.933.359 1.053 1.484-1.126 4.334 1.964-.527 7.208-1.796 8.022-2.012.814-.215 2.155 1.15.502 2.107.168.192-.095 1.15-1.604 1.868l-7.064 3.328s-2.131 1.054-4.166 6.585c.048.048-6.728-2.347-6.728-2.347ZM119.965 165.474l1.82 2.729a6.97 6.97 0 0 1 1.029 5.364l-.455 2.227a2.016 2.016 0 0 0 1.049 2.329c.277.137.582.209.891.209h23.825a1.317 1.317 0 0 0 1.317-1.317 1.316 1.316 0 0 0-1.125-1.293c-2.203-.311-8.285-2.394-12.117-3.807-1.867-.695-4.501-2.682-5.459-4.406a75.511 75.511 0 0 1-3.209-6.968l-7.566 4.933Z"/>
    <path fill="#271A38" d="m120.874 171.532-21.406-34.888a7.492 7.492 0 0 1 2.49-10.32 7.52 7.52 0 0 1 10.32 2.466l22.412 37.091-13.816 5.651Z"/>
    <path fill="#CC8269" d="m97.169 162.337-3.712 13.696a2.013 2.013 0 0 0 1.94 2.539h23.849a1.298 1.298 0 0 0 1.202-.815 1.31 1.31 0 0 0 .091-.502 1.312 1.312 0 0 0-.324-.855 1.31 1.31 0 0 0-.801-.438c-3.017-.431-13.026-3.329-15.086-4.765.072 0 1.677-6.897 1.677-6.897l-8.836-1.963Z"/>
    <path fill="#271A38" d="m109.336 118.45-40.299-1.971a8.836 8.836 0 0 0-9.256 8.394v.007a8.836 8.836 0 0 0 8.393 9.257l40.299 1.971a8.837 8.837 0 0 0 9.257-8.394v-.007a8.837 8.837 0 0 0-8.394-9.257Z"/>
    <path fill="#271A38" d="m117.696 128.901-8.647 39.998-14.675-3.173 8.648-39.998a7.497 7.497 0 0 1 8.909-5.741 7.49 7.49 0 0 1 5.742 8.909l.023.005Z"/>
    <path fill="#CC8269" d="m80.168 68.736-2.801 8.573 9.338 1.317 1.317-9.41-7.854-.48Z"/>
    <path fill="#CC8269" d="M86.513 73.382a9.53 9.53 0 1 0 0-19.06 9.53 9.53 0 0 0 0 19.06Z"/>
    <path fill="url(#l)" d="M91.494 48.431c1.772 1.94 3.424 1.676 4.933 1.605 1.508-.072 3.831 1.484 3.28 5.555-.55 4.07-1.03 4.908-1.82 5.579-.479 1.101-2.85 2.155-5.986.742-1.173-.359-2.682 2.826-2.682 2.826l-2.777-2.419s-.623 5.915-7.208 7.686c-1.389.336-3.735-1.795-3.903-5.387-.168-3.592-2.011-6.345-.766-11.015 1.245-4.669 6.944-5.818 6.944-5.818.287-.886 3.256-2.131 5.483-1.078 1.365-.43 2.85-.072 4.502 1.724Z"/>
    <path fill="#CC8269" d="M86.551 66.165c1.097-.05 1.936-1.183 1.875-2.53-.061-1.348-1-2.4-2.096-2.35-1.097.05-1.936 1.182-1.875 2.53.061 1.347 1 2.4 2.096 2.35Z"/>
    <path fill="url(#m)" d="M80.192 72.76a11.947 11.947 0 0 0-10.799 6.847c-.3.631-.54 1.289-.718 1.964-2.227 6.058-8.788 24.136-10.344 29.237-1.892 6.177-1.27 15.827 5.53 15.827 6.801 0 8.597.216 13.578-3.472 4.98-3.687 10.272-5.89 14.247-5.89 0-1.581.407-32.613.407-32.613a11.924 11.924 0 0 0-11.9-11.9Z"/>
    <mask id="o" width="36" height="55" x="57" y="72" maskUnits="userSpaceOnUse" style="mask-type:alpha">
      <path fill="url(#n)" d="M80.192 72.76a11.947 11.947 0 0 0-10.799 6.847c-.3.631-.54 1.289-.718 1.964-2.227 6.058-8.788 24.136-10.344 29.237-1.892 6.177-1.27 15.827 5.53 15.827 6.801 0 8.597.216 13.578-3.472 4.98-3.687 10.272-5.89 14.247-5.89 0-1.581.407-32.613.407-32.613a11.924 11.924 0 0 0-11.9-11.9Z"/>
    </mask>
    <g fill="#F9AB2D" mask="url(#o)" opacity=".5">
      <path d="M74.733 100.511c-.838.431-1.341.934-1.724.862-.383-.071-1.317-.67-1.317-1.077 0-.407.503-1.556 1.413-1.365.502.12.886.814 1.628 1.58ZM57.23 126.18c.43.551 1.053 1.054 1.196 1.676.144.623-.67.862-1.053 1.293-.36-.55-.838-1.053-1.03-1.652-.191-.598.24-.814.383-1.221l.503-.096ZM72.602 91.676c-1.246-.048-1.82-.55-1.725-1.437.072-.43.6-.766.934-1.15.455.48 1.03.91 1.317 1.485.288.575-.359.815-.526 1.102ZM66.376 98.045c1.748.072 2.49.527 2.25 1.34-.239.815-.91 1.078-1.676.863-1.46-.431-.191-1.437-.574-2.203ZM64.412 82.098c-.646-.766-1.269-1.221-1.436-1.82-.168-.598-.048-1.269.886-1.22.934.047 1.101 1.005 1.34 1.651.097.264-.382.719-.79 1.39ZM60.701 107.168c1.03-.167 2.323.886 2.155 1.748-.072.287-.622.742-.766.695-.144-.048-1.078-.527-1.34-.958-.264-.431-.049-1.006-.049-1.485ZM73.176 84.66l.934-.958c.475.466.9.98 1.27 1.533.047.095-.504.814-.791.814-.287 0-1.437.072-1.413-1.39ZM75.211 79.847c.288-.574-.766-1.412.383-1.796.36-.12 1.054-.095 1.15.072.24.527.263 1.173.359 1.772l-1.7.311-.192-.359ZM82.156 105.348c.814-1.293 1.389-1.58 2.083-.885.287.287.431 1.053.24 1.412-.192.359-1.365.455-2.323-.527ZM85.843 99.099c-.311.526-.503 1.173-.934 1.508-.43.335-.957 0-1.34-.239-.384-.24-.408-.719-.288-1.006.12-.287.55-.479.886-.55a6.035 6.035 0 0 1 1.317-.025l.36.312ZM83.448 116.028c-.742.503-1.149 1.006-1.556 1.006-.407 0-1.15-.503-1.15-.815-.047-.766.48-1.388 1.342-1.245.383.048.694.503 1.364 1.054ZM70.83 77.764c.407.574.91 1.101 1.149 1.748.072.191-.599.91-.934.933-.335.024-1.245-.215-1.102-1.053.144-.838.264-1.054.407-1.556l.48-.072ZM86.801 83.2c-.67.478-.982.91-1.317.933-.814.024-1.436-.478-1.412-1.293 0-.359.718-1.053.837-.981.575.24 1.078.718 1.892 1.34ZM61.97 76.255c-.718.503-1.053.886-1.437.982-.383.096-1.484-.886-1.293-1.604.072-.311.743-.695 1.006-.623.264.072.958.647 1.724 1.245ZM79.21 127.593c-.623.527-1.006 1.077-1.46 1.149-.456.072-1.006-.718-.935-.958.072-.239.647-1.029 1.006-1.532l1.389 1.341ZM60.318 102.714c-.575.623-.91 1.293-1.293 1.365a1.038 1.038 0 0 1-.922-.351 1.028 1.028 0 0 1-.203-.966c.095-.407.694-.838 1.173-.982.479-.143.67.479 1.245.934ZM83.52 124.983c.48.694 1.054 1.173.958 1.437-.096.263-.79 1.197-1.078 1.125-.287-.072-.886-.718-1.317-1.149l1.437-1.413ZM65.897 96.177c-1.245-.359-1.94-.742-1.772-1.82.08-.283.193-.556.335-.814.55.288 1.293.431 1.58.886.288.455-.071 1.078-.143 1.748ZM84.167 90.096c-1.46-.12-2.298-.719-1.915-1.413.383-.694.958-.718 1.508-.766.551-.048.814.934.407 2.179ZM63 114.902c-.48-.718-.862-1.149-1.054-1.676-.072-.12.455-.694.718-.718.767 0 1.653.167 1.653 1.149 0 .311-.67.647-1.317 1.245ZM82.634 71.73c.551.79 1.03 1.245 1.198 1.82.071.19-.551.837-.934.885-.383.048-1.245-.407-1.174-1.15.072-.741.455-.79.91-1.555ZM57.876 79.823c.215-.12.55-.431.957-.503.934-.12 1.078.719 1.126 1.341.048.623-.503.862-.814.862-.79.024-1.317-.455-1.27-1.7ZM76.984 113.705a41.42 41.42 0 0 1-1.27-1.533l1.366-1.053c.311.431.79.838.91 1.317s-.503.646-1.006 1.269ZM56.87 71.873l1.293-1.413c.359.503.838.934 1.03 1.485.19.55-.336.694-.551 1.054l-1.772-1.126ZM60.82 89.281c.719.838 1.246 1.437 1.7 2.083.049.072-.335.623-.574.67-.718.12-1.868-.813-1.772-1.388.096-.575.335-.718.647-1.365ZM64.82 101.517c-.695.431-1.03.838-1.318.814-.694-.096-1.532-.263-1.412-1.245.047-.335.646-.91.79-.862.575.263 1.077.694 1.94 1.293ZM80.12 91.436c.575.336 1.198.6 1.677 1.006.478.407-.024.934-.192 1.006-.168.072-1.437.36-1.532.191-.288-.55-.264-1.269-.36-1.891l.407-.312ZM80.767 76.543c.498.673.954 1.376 1.365 2.107.048.072-.455.622-.719.646-.766.072-1.604-.838-1.46-1.556.048-.312.359-.575.814-1.197ZM56.966 91.293c.79.575 1.556 1.125 1.03 2.155-.096.168-1.174.096-1.533-.192-.91-.766-.24-1.364.503-1.963ZM79.33 120.912c.503.718.886 1.173 1.126 1.7.047.096-.527.671-.815.695-.718 0-1.532-.216-1.508-1.15.024-.335.599-.646 1.197-1.245ZM70.518 122.229c.264.503.647 1.006.719 1.533.071.527-.48.67-.743 1.006-.407-.455-.958-.862-1.221-1.413-.263-.551.479-.742.718-1.126h.527ZM62.138 72.831c.67-.407.958-.742 1.269-.766.766-.024 1.365.407 1.317 1.197-.024.36-.767 1.03-.91.958-.527-.24-.934-.742-1.676-1.389ZM91.877 92.801c.455.886.814 1.365.934 1.916.048.168-.647.742-.79.67-.144-.072-1.054-.622-1.245-1.077-.192-.455.526-.766 1.101-1.509ZM75.619 73.262c.43-.287.886-.862 1.317-.838.43.024.79.647 1.173 1.03-.383.287-.742.79-1.15.838-.407.048-.885-.36-1.316-.551l-.024-.479ZM69.704 93.759c.575.742 1.054 1.221 1.341 1.796.072.12-.407.742-.694.814-.288.072-1.533-.79-1.437-1.437.096-.646.36-.575.79-1.173ZM83.257 119.739c.55.527 1.078.91 1.46 1.413.12.144-.215.886-.263.886-.718-.12-1.412-.311-2.274-.527l1.077-1.772ZM72.793 75.226c-.814-.407-1.891-.48-1.724-1.653.048-.263.91-.598 1.341-.574.431.024.862 1.245.383 2.227ZM76.026 88.491c1.27.12 2.083.766 1.796 1.46-.144.312-.766.623-1.15.6-.79-.072-1.029-.886-.646-2.06ZM66.998 123.451c-.718.55-1.293 1.149-1.413 1.077-.502-.335-.861-.862-1.292-1.317.287-.263.646-.766.861-.718.216.048 1.006.479 1.844.958ZM79.57 99.29c-.503-.647-1.078-1.125-1.006-1.365.072-.24.719-.958 1.126-1.006.407-.047.91.623.981 1.03.072.407-.55.718-1.101 1.341ZM66.879 91.772l-1.58-1.246c.478-.335.933-.861 1.46-.957.527-.096.766.622.934 1.053.167.431-.431.623-.814 1.15ZM82.706 112.292l-1.053-1.293c.455-.311.886-.862 1.34-.862.456 0 .743.647 1.102 1.006-.407.311-.79.646-1.389 1.149ZM67.478 102.642c.718.718 1.22 1.126 1.58 1.628.072.12-.503.623-.766.958-.431-.383-.958-.718-1.27-1.197-.31-.479.216-.671.456-1.389ZM76.337 123.331c-.622.502-.957.981-1.317 1.005-.91.096-.862-.718-.838-1.269.024-.55.383-.718.599-1.077l1.556 1.341ZM81.652 84.9c-.694.334-1.005.646-1.293.622a1.485 1.485 0 0 1-1.317-1.58c0-.168.551-.575.623-.527.688.459 1.352.954 1.987 1.484ZM64.101 117.919c-.67.455-1.101.91-1.293.838a2.82 2.82 0 0 1-1.15-1.101c-.071-.144.671-.982.887-.91.215.072.838.599 1.556 1.173ZM57.444 123.211l-1.173 1.293c-.311-.383-.838-.742-.838-1.126 0-.383.479-.885.742-1.34l1.27 1.173ZM59.288 98.955c-.814.287-1.317.646-1.652.527-.335-.12-.647-.695-.958-1.054.407-.311.862-.91 1.198-.838.335.072.766.67 1.412 1.365ZM62.952 85.857l1.15-1.053c.407.455.861.862 1.149 1.365.048.095-.647.862-.814.814-.168-.048-.838-.599-1.485-1.126ZM62.138 124.121l-1.15 1.173c-.359-.383-.934-.718-1.03-1.149-.095-.431.527-.91.91-1.006.384-.096.719.503 1.27.982ZM60.725 113.202c-.575.503-1.006.982-1.077.934a11.183 11.183 0 0 1-1.413-1.221c.311-.287.694-.862.91-.814.215.048.886.575 1.58 1.101ZM72.84 119.978l-1.268-1.101 1.15-1.269c.31.455.741.862.933 1.341.192.479-.431.551-.814 1.029ZM63.55 103.552c.575.719 1.054 1.102 1.15 1.533.096.431-.743.934-.886.862a2.633 2.633 0 0 1-1.126-1.102c-.072-.167.407-.622.862-1.293ZM71.237 109.61c-.407-.55-.886-.91-.886-1.269 0-.359.407-.79.646-1.197l1.413 1.413-1.173 1.053ZM74.158 103.912c.575.838.981 1.388 1.389 1.963-.264.168-.67.575-.767.503a7.452 7.452 0 0 1-1.389-1.365c-.047-.072.36-.503.767-1.101ZM87.4 77.98l-.79.837c-.456-.43-.982-.838-1.342-1.34-.047-.096.527-.647.815-.982l1.317 1.484ZM60.701 86.312c-.311.215-.766.646-.934.55-.167-.095-.91-.766-1.365-1.173.288-.24.67-.766.886-.694.216.072.958.527 1.46.838a3.274 3.274 0 0 0-.047.479ZM89.77 122.972c-.694.526-1.078.933-1.58 1.149-.144.072-.79-.503-.743-.599.274-.546.594-1.066.958-1.556l1.365 1.006ZM57.564 106.881v1.964c-.359-.024-.838.095-1.101-.096-.264-.192-.575-.814-.455-1.03.12-.215.766-.718 1.197-1.077l.36.239ZM78.42 100.703c.48.67.886 1.053 1.03 1.508.144.455-.479.719-.766.742-.288.024-1.39-.167-1.293-1.029.024-.311.478-.599 1.03-1.221ZM68.77 83.151c.477.579.917 1.187 1.317 1.82.048.072-.526.695-.814.695-.79 0-1.245-.527-1.149-1.341.048-.288.311-.575.647-1.174ZM75.284 94.214c.407.646.814 1.005.79 1.317-.024.311-.479.742-.742 1.125-.383-.383-.886-.694-1.102-1.15-.215-.454.527-.67 1.054-1.292ZM71.62 112.101c.455.742.862 1.149.91 1.604.047.455-.695.91-.79.862-.096-.048-.959-.623-1.054-1.03-.096-.407.455-.766.934-1.436ZM79.641 107.695c-.072.048-.55.527-.694.455-.144-.072-.767-.766-1.126-1.149.264-.24.503-.647.79-.671.288-.024 1.222.096 1.03 1.365ZM67.31 116.698c.475.487.915 1.007 1.316 1.557.048.071-.598.742-.694.694-.524-.274-1-.63-1.413-1.054-.048-.071.383-.598.79-1.197ZM86.705 72.257c.12-.096.599-.503.647-.455.453.434.877.898 1.269 1.388-.264.216-.55.647-.79.623-.695-.072-1.293-.407-1.126-1.556ZM92.835 87.366c.503.766.934 1.197 1.053 1.7.12.503-.67.862-.814.814-.143-.048-.934-.599-1.053-1.006-.12-.407.407-.766.814-1.508ZM67.453 109.539c-.335.119-.814.431-.958.311a5.824 5.824 0 0 1-1.245-1.508c-.072-.144.383-.575.599-.863l1.365 1.461.24.599ZM88.022 106.258c.479.838.838 1.293 1.006 1.82.048.168-.431.718-.695.742-.933.072-1.125-.67-1.101-1.388 0-.288.335-.551.79-1.174ZM89.507 90.934c-.48.455-.958 1.03-1.054.981-.455-.287-.814-.742-1.221-1.125.335-.335.694-.934 1.03-.91.335.024.718.575 1.245 1.054ZM93.074 113.202l-2.442.12c.215-.694.263-1.604.55-1.7 1.006-.287 1.39.551 1.892 1.58ZM62.928 96.465c-.599.479-1.03.934-1.126.886a12.374 12.374 0 0 1-1.317-1.198c.24-.239.551-.694.719-.646.167.048.957.503 1.724.958ZM91.805 83.63c.48-.55.862-1.03.91-.981.494.306.945.677 1.341 1.101.048.048-.479.838-.575.79-.502-.167-.957-.502-1.676-.91ZM92.38 99.075c.455.718.862 1.125.886 1.532.024.407-.455.742-.718 1.126-.335-.407-.838-.743-.934-1.198-.096-.455.383-.742.766-1.46ZM86.993 118.709c-.36-.622-.839-1.077-.743-1.365.096-.287.647-.598 1.006-.886.263.432.622.839.766 1.317.144.479-.527.479-1.03.934ZM91.686 122.804c.335-.215.742-.646.981-.551.24.096.91.599 1.365.91-.335.24-.67.647-.958.623-.287-.024-.933-.383-1.388-.599v-.383ZM92.044 106.546c-1.125-.168-1.772-.599-1.724-1.629.024-.215.575-.598.79-.526 1.054.287 1.006 1.149.934 2.155ZM77.367 118.638c-.408-.479-.958-.863-.886-1.054.071-.192.646-.982.862-.91.215.072.79.575 1.149.91l-1.126 1.054ZM93.074 117.632c-.598.431-1.03.91-1.245.814a2.035 2.035 0 0 1-1.03-.982c-.071-.12.503-.862.623-.838.503.192.934.527 1.652 1.006ZM85.771 113.298c.168-1.054.694-1.58 1.724-1.293.168.048.431.551.36.694-.432.838-1.078 1.246-2.084.599ZM86.633 94.74c-.526.456-.91.959-1.077.887a1.701 1.701 0 0 1-.958-.91c-.048-.216.503-.934.67-.886.168.048.767.479 1.365.91ZM91.015 72.807c.934-.335 1.7-.43 2.131.455.096.192-.143.814-.311.838-.958.216-1.413-.383-1.82-1.293ZM60.366 119.523c-.647.407-1.03.814-1.27.743a1.71 1.71 0 0 1-1.029-.838c-.096-.144.455-.886.551-.862.503.167.934.478 1.748.957ZM68.243 76.902c-.407.454-.79.981-.862.933-.455-.215-.814-.598-1.22-.91.287-.335.598-.933.861-.933.264 0 .718.502 1.221.91ZM91.302 76.064c.408.575.743.958.934 1.413.048.096-.622.67-.718.598a9.945 9.945 0 0 1-1.197-1.077l.981-.934ZM87.112 102.02c.742.192 1.628.144 1.46 1.173-.023.264-.766.671-1.029.599-.766-.263-.814-.934-.431-1.772ZM68.291 114.639c-1.101-.264-1.532-.886-1.412-1.82.024-.12.646-.311.742-.192.575.503 1.125 1.078.67 2.012ZM90.225 86.288c-.575.36-.934.766-1.125.694a2.682 2.682 0 0 1-.934-.862c-.048-.095.479-.742.622-.718.144.024.79.455 1.437.886ZM89.123 79.847c.264.407.599.814.719 1.27.12.454-.264.526-.431.813-.336-.359-.767-.67-.982-1.101-.216-.431.167-.599.287-.91l.407-.072ZM89.507 98.357c-.383.43-.743.957-.839.91-.095-.048-.838-.48-.933-.815-.096-.335.407-.646.622-.957l1.15.862Z"/>
    </g>
    <path fill="#F2E93F" d="M91.18 80.123a5.962 5.962 0 1 0-11.213 4.058l9.592 26.498a5.963 5.963 0 0 0 11.213-4.058l-9.593-26.498Z"/>
    <mask id="p" width="23" height="39" x="79" y="76" maskUnits="userSpaceOnUse" style="mask-type:alpha">
      <path fill="#F2E93F" d="M91.18 80.123a5.962 5.962 0 1 0-11.213 4.058l9.592 26.498a5.963 5.963 0 0 0 11.213-4.058l-9.593-26.498Z"/>
    </mask>
    <g fill="#F9AB2D" mask="url(#p)" opacity=".5">
      <path d="m98.797 89.33 1.389-1.222c.383.455.957.886 1.029 1.365.072.479-.55.91-.838 1.365l-1.58-1.509ZM82.156 105.348c.814-1.293 1.389-1.58 2.083-.886.287.287.431 1.054.24 1.413-.192.359-1.365.455-2.323-.527ZM85.843 99.099c-.311.526-.503 1.173-.934 1.508-.43.335-.957 0-1.34-.239-.384-.24-.408-.719-.288-1.006.12-.287.55-.479.886-.55a6.035 6.035 0 0 1 1.317-.025l.36.312ZM86.801 83.2c-.67.478-.982.909-1.317.933-.814.024-1.436-.479-1.412-1.293 0-.36.718-1.054.837-.982.575.24 1.078.718 1.892 1.341ZM84.167 90.095c-1.46-.12-2.298-.718-1.915-1.412.383-.695.958-.719 1.508-.767.551-.048.814.934.407 2.18ZM80.12 91.436c.575.335 1.198.599 1.677 1.006.478.407-.024.934-.192 1.005-.168.072-1.437.36-1.532.192-.288-.55-.264-1.27-.36-1.892l.407-.311ZM80.767 76.543c.498.673.954 1.376 1.365 2.107.048.072-.455.622-.719.646-.766.072-1.604-.838-1.46-1.556.048-.312.359-.575.814-1.197ZM91.877 92.801c.455.886.814 1.365.934 1.916.048.168-.646.742-.79.67-.144-.072-1.054-.622-1.245-1.077-.192-.455.526-.766 1.101-1.509ZM79.57 99.29c-.503-.647-1.078-1.125-1.006-1.365.072-.24.719-.958 1.126-1.006.407-.047.91.623.981 1.03.072.407-.55.718-1.101 1.341ZM96.259 105.755c-.527-.67-1.15-1.197-1.078-1.388.072-.192.767-.743 1.198-1.102.287.383.742.766.814 1.197.072.431-.48.671-.934 1.293ZM82.706 112.292l-1.053-1.293c.455-.312.886-.862 1.34-.862.456 0 .743.646 1.102 1.005-.407.312-.79.647-1.389 1.15ZM81.652 84.9c-.694.334-1.005.646-1.293.622a1.485 1.485 0 0 1-1.317-1.58c0-.168.551-.575.623-.527.688.459 1.352.954 1.987 1.484ZM96.403 79.655c-.575.431-1.006.886-1.102.814a6.87 6.87 0 0 1-1.436-1.317c-.048-.048.622-.838.694-.79.575.311 1.078.742 1.844 1.293ZM87.4 77.979l-.79.838c-.456-.431-.982-.838-1.342-1.341-.047-.096.527-.647.815-.982L87.4 77.98ZM102.82 104.917c-.67.598-1.029.934-1.413 1.245-.335-.383-.862-.742-.957-1.173-.096-.431.574-.862.934-.934.359-.072.766.431 1.436.862ZM79.641 107.695c-.072.047-.55.526-.694.455-.144-.072-.767-.767-1.126-1.15.264-.239.503-.646.79-.67.288-.024 1.222.096 1.03 1.365ZM101 116.698l-1.413-1.748c.407-.24.838-.719 1.222-.671.383.048.838 1.102.191 2.419ZM92.835 87.365c.503.767.934 1.198 1.053 1.7.12.503-.67.862-.814.814-.143-.047-.934-.598-1.053-1.005-.12-.407.407-.766.814-1.509ZM88.022 106.258c.479.838.838 1.293 1.006 1.82.048.168-.431.718-.695.742-.933.072-1.125-.67-1.101-1.388 0-.288.335-.551.79-1.174ZM89.507 90.933c-.48.455-.958 1.03-1.054.982-.455-.287-.814-.742-1.221-1.126.335-.335.694-.933 1.03-.91.335.024.718.575 1.245 1.054ZM93.074 113.202l-2.442.12c.215-.695.263-1.605.55-1.7 1.006-.288 1.39.55 1.892 1.58ZM95.11 98.476c-.479-.719-.934-1.102-1.006-1.557-.072-.454.695-.814.958-.742.264.072.814.575.886.982.072.407-.407.67-.838 1.317ZM91.805 83.63c.48-.55.862-1.03.91-.982.494.307.945.677 1.341 1.102.048.048-.479.838-.575.79-.502-.168-.957-.503-1.676-.91ZM92.38 99.074c.455.719.862 1.126.886 1.533.024.407-.455.742-.718 1.125-.335-.407-.838-.742-.934-1.197-.096-.455.383-.742.766-1.46ZM99.66 100.272c-.551.455-.887.91-1.27.958-.383.048-.862-.623-.814-.838.048-.216.55-.838.862-1.27l1.221 1.15ZM99.229 77.213c.406.632.774 1.287 1.101 1.963.024.096-.43.407-.67.599a8.738 8.738 0 0 1-1.126-1.365c-.096-.12.311-.55.695-1.197ZM92.044 106.545c-1.125-.167-1.772-.598-1.724-1.628.024-.216.575-.599.79-.527 1.054.288 1.006 1.15.934 2.155ZM85.771 113.298c.168-1.054.694-1.58 1.724-1.293.168.048.431.551.36.694-.432.838-1.078 1.245-2.084.599ZM100.354 94.453c.838.407 1.556.814 1.197 1.724-.072.192-.886.311-1.149.144-.814-.503-.48-1.174-.048-1.868ZM86.633 94.74c-.526.455-.91.958-1.077.886a1.701 1.701 0 0 1-.958-.91c-.048-.215.503-.933.67-.886.168.048.767.48 1.365.91ZM95.684 88.012c.168-.48.264-1.006.575-1.389.311-.383.91.096 1.077.36.168.263.168.98-.072 1.172-.239.192-.862.192-1.293.264l-.287-.407ZM95.301 109.754l-1.796-.311c.24-.479.503-.934.767-1.413l1.34 1.029-.31.695ZM98.917 83.606c-.455.24-.814.55-.91.479a10.608 10.608 0 0 1-1.221-1.078l.886-.862 1.245 1.461ZM91.302 76.064c.408.574.743.957.934 1.412.048.096-.622.67-.718.599a9.936 9.936 0 0 1-1.197-1.078l.981-.933ZM87.112 102.02c.742.191 1.628.143 1.46 1.173-.023.263-.766.67-1.029.598-.766-.263-.814-.933-.431-1.771ZM99.372 108.078c.407.67.79 1.053.79 1.436s-.407.647-.622.982c-.336-.335-.863-.623-.982-1.03-.12-.407.407-.718.814-1.388ZM95.852 93.471c-.263-.766-.43-1.508.431-1.867.168-.072.742.43.814.718.168.838-.263 1.269-1.245 1.15ZM97.289 76.399c-.862.024-1.7.215-1.628-.934 0-.24.407-.694.622-.694 1.054-.024 1.006.742 1.006 1.628ZM90.225 86.288c-.575.36-.934.766-1.125.694a2.682 2.682 0 0 1-.934-.862c-.048-.095.479-.742.622-.718.144.024.79.455 1.437.886ZM89.123 79.847c.264.407.599.814.719 1.269.12.455-.264.526-.431.814-.336-.36-.767-.67-.982-1.102-.216-.43.167-.598.287-.91l.407-.071ZM97.456 114.064c-.694.311-1.101.622-1.484.622s-.503-.455-.766-.718c.335-.263.622-.718.981-.766.36-.048.647.407 1.27.862ZM89.507 98.356c-.383.431-.743.958-.839.91-.095-.048-.838-.479-.933-.814-.096-.335.407-.647.622-.958l1.15.862Z"/>
    </g>
    <path fill="#F2E93F" d="m108.662 92.561-8.021 18.462a4.517 4.517 0 0 1-2.495 2.41 4.523 4.523 0 0 1-3.467-.063 4.531 4.531 0 0 1-2.724-4.235 4.53 4.53 0 0 1 .377-1.728l8.022-18.461 8.308 3.615Z"/>
    <mask id="q" width="18" height="26" x="91" y="88" maskUnits="userSpaceOnUse" style="mask-type:alpha">
      <path fill="#F2E93F" d="m108.662 92.561-8.021 18.462a4.517 4.517 0 0 1-2.495 2.41 4.523 4.523 0 0 1-3.467-.063 4.531 4.531 0 0 1-2.724-4.235 4.53 4.53 0 0 1 .377-1.728l8.022-18.461 8.308 3.615Z"/>
    </mask>
    <g fill="#F9AB2D" mask="url(#q)" opacity=".5">
      <path d="m98.797 89.33 1.389-1.222c.383.455.957.886 1.029 1.365.072.48-.55.91-.838 1.365l-1.58-1.508ZM104.759 113.322c.335.455.862.862.958 1.365.096.503-.288.934-.599 1.293-.311.359-.934-.167-.958-.335a16.122 16.122 0 0 1 .048-2.131l.551-.192ZM91.877 92.802c.455.886.814 1.365.934 1.915.047.168-.647.743-.79.67-.144-.071-1.054-.622-1.246-1.077-.191-.455.527-.766 1.102-1.508ZM96.258 105.756c-.526-.671-1.149-1.197-1.077-1.389.072-.191.766-.742 1.197-1.101.288.383.743.766.814 1.197.072.431-.478.67-.933 1.293ZM103.154 100.895c-.239-.527-.598-1.006-.67-1.557-.072-.55.431-.646.67-.958.384.48.862.934 1.102 1.485.239.551-.407.67-.623 1.03h-.479ZM107.488 108.102c-.694.312-1.125.671-1.341.551-.215-.12-.814-.694-1.197-1.054.335-.311.838-.957.958-.885.503.239.886.742 1.58 1.388ZM107.512 91.963l-1.149 1.006c-.335-.407-.814-.79-.982-1.293-.167-.503.479-.623.767-.958l1.364 1.245ZM102.82 104.917c-.671.599-1.03.934-1.413 1.245-.335-.383-.862-.742-.958-1.173-.096-.431.575-.862.934-.934.359-.072.766.431 1.437.862ZM109.38 95.291c.311.503.694.958.886 1.485.072.144-.527.742-.623.718-.478-.239-1.029-.55-1.245-.981-.215-.431.336-.767.527-1.174l.455-.047ZM92.834 87.366c.503.766.934 1.197 1.054 1.7.12.503-.67.862-.814.814-.144-.048-.934-.599-1.054-1.006-.12-.407.407-.766.814-1.508ZM93.074 113.202l-2.443.12c.216-.694.264-1.604.551-1.7 1.006-.287 1.389.551 1.892 1.58ZM95.109 98.476c-.479-.718-.934-1.101-1.006-1.556-.072-.455.695-.814.958-.742.264.072.814.574.886.981.072.407-.407.67-.838 1.317ZM109.069 104.295c-.695.503-1.078 1.006-1.413.958-.335-.048-.814-.551-.934-.934-.12-.383.503-.862.79-.862.288 0 .814.407 1.557.838ZM108.207 101.23c-.79.479-1.509.742-1.916-.168-.143-.335.144-1.173.407-1.269 1.198-.407 1.078.742 1.509 1.437ZM92.38 99.075c.454.718.861 1.125.885 1.532.024.407-.455.742-.718 1.126-.335-.407-.838-.743-.934-1.198-.096-.455.383-.742.766-1.46ZM99.659 100.272c-.55.455-.886.91-1.27.958-.382.048-.861-.622-.813-.838.048-.215.55-.838.862-1.269l1.22 1.149ZM109.692 112.173c-.527.383-.982.91-1.15.838-.167-.072-.886-.671-.886-1.054s.575-.694.886-1.053l1.15 1.269ZM92.044 106.546c-1.125-.168-1.772-.599-1.724-1.629.024-.215.575-.598.79-.526 1.054.287 1.006 1.149.934 2.155ZM105.861 95.316c-.503.455-.982.958-1.054.91-.431-.288-.742-.743-1.101-1.126.287-.263.646-.79.862-.742.215.048.742.503 1.293.958ZM100.353 94.454c.838.407 1.556.814 1.197 1.724-.072.191-.886.31-1.149.143-.814-.502-.48-1.173-.048-1.867ZM104.687 111.502c-.718-.024-1.604.431-1.82-.67-.048-.311.359-.982.551-.982.982 0 1.293.694 1.269 1.652ZM95.3 109.754l-1.795-.311c.24-.479.503-.934.766-1.413l1.341 1.03-.311.694ZM99.371 108.078c.407.671.79 1.054.79 1.437s-.407.646-.622.982c-.336-.336-.862-.623-.982-1.03-.12-.407.407-.718.814-1.389ZM95.851 93.472c-.263-.766-.43-1.509.431-1.868.168-.072.743.431.814.719.168.838-.263 1.269-1.245 1.149ZM97.456 114.064c-.695.312-1.102.623-1.485.623s-.502-.455-.766-.719c.335-.263.623-.718.982-.766.359-.048.646.407 1.269.862Z"/>
    </g>
    <path fill="#9CC7F2" d="M75.523 137.626a1.916 1.916 0 1 0-3.832 0v41.477a1.916 1.916 0 1 0 3.832 0v-41.477ZM59.83 138.094a1.916 1.916 0 1 0-3.791-.553l-5.988 41.043a1.916 1.916 0 0 0 3.791.553l5.988-41.043ZM103.555 179.09a1.916 1.916 0 0 0 3.792-.553l-5.988-41.043a1.916 1.916 0 0 0-3.791.553l5.987 41.043ZM88.13 179.199a1.915 1.915 0 1 0 3.813-.367l-3.976-41.286a1.915 1.915 0 1 0-3.813.367l3.975 41.286Z"/>
    <path fill="#9CC7F2" d="m75.906 134.154-5.819-33.834a2.634 2.634 0 0 0-2.61-2.179H49.949a2.657 2.657 0 0 0-2.61 3.089l6.322 36.636a2.632 2.632 0 0 0 2.586 2.179h42.358a4.382 4.382 0 0 0 4.382-4.382v-1.509H75.906Z"/>
    <path fill="#F9AB2D" d="M145.898 184.007h5.172a1.865 1.865 0 0 0 1.868-1.861c0-1.027-.837-1.86-1.868-1.86h-5.172a1.864 1.864 0 0 0-1.868 1.86c0 1.028.836 1.861 1.868 1.861Z"/>
    <path fill="url(#r)" d="M174.727 173.471h-.551l1.197-8.308c-4.166 0-7.949 1.652-12.379 4.597-4.43 2.945-8.956 2.203-10.057 1.82-.407-.144-1.149.79-1.676 2.107a3.114 3.114 0 0 0-2.011 2.921v4.286a3.109 3.109 0 0 0 3.112 3.113h22.365a3.134 3.134 0 0 0 3.137-3.113v-4.286a3.137 3.137 0 0 0-3.137-3.137Z"/>
    <path fill="#F9AB2D" d="M178.582 193.513c-1.556 0-2.538-.478-3.16-.933a3.76 3.76 0 0 1-1.413-2.634 3.662 3.662 0 0 1 1.293-3.137c1.413-1.245 3.664-1.581 6.321-.982 3.377.766 4.454.024 4.718-.239a.797.797 0 0 0 .239-.719c-.072-.359-.168-.862-3.568-.862-5.627 0-9.937.048-9.961.048h-.024c-.406 0-.796-.161-1.083-.449a1.529 1.529 0 0 1-.449-1.083 1.503 1.503 0 0 1 .433-1.082 1.516 1.516 0 0 1 1.075-.451c.048 0 4.358-.048 10.009-.048 2.203 0 5.891 0 6.585 3.329a3.955 3.955 0 0 1-1.101 3.52c-1.054 1.005-3.209 2.011-7.567 1.029-1.915-.431-3.113-.12-3.616.288a.75.75 0 0 0-.263.598.598.598 0 0 0 .239.431c.168.12.791.479 2.347.216a1.54 1.54 0 0 1 1.247.152 1.527 1.527 0 0 1 .415 2.254 1.523 1.523 0 0 1-1.111.587 8.082 8.082 0 0 1-1.605.167Z"/>
    <path fill="#F9AB2D" d="M184.018 178.332s-.695 1.94 3.065 3.113c-2.61.263-6.992 0-6.992 0l3.927-3.113Z"/>
    <path fill="#F9AB2D" d="M184.808 174.597a9.436 9.436 0 0 0-12.444-8.973 9.431 9.431 0 0 0-4.485 14.672h-1.509a1.845 1.845 0 0 0-1.71 1.154 1.835 1.835 0 0 0-.133.713 1.817 1.817 0 0 0 1.843 1.844h11.278a1.846 1.846 0 0 0 1.533-.79 9.44 9.44 0 0 0 5.627-8.62Z"/>
    <path fill="url(#s)" d="M152.386 184.007a6.752 6.752 0 1 0 .002-13.504 6.752 6.752 0 0 0-.002 13.504Z"/>
    <path fill="#F9AB2D" d="m158.588 169.975-.407 3.544a.506.506 0 0 1-.547.449.493.493 0 0 1-.243-.09l-2.874-2.131a.499.499 0 0 1-.198-.458.493.493 0 0 1 .294-.404l3.281-1.436a.517.517 0 0 1 .486.079.522.522 0 0 1 .208.447ZM146.28 169.975l.407 3.544a.506.506 0 0 0 .547.449.493.493 0 0 0 .243-.09l2.874-2.131a.499.499 0 0 0 .199-.458.505.505 0 0 0-.295-.404l-3.281-1.436a.517.517 0 0 0-.486.079.522.522 0 0 0-.208.447ZM156.218 184.007h3.328a1.865 1.865 0 0 0 1.868-1.861c0-1.027-.837-1.86-1.868-1.86h-3.328a1.864 1.864 0 0 0-1.868 1.86c0 1.028.836 1.861 1.868 1.861Z"/>
  </g>
  <path stroke="#E9E9E9" stroke-miterlimit="10" d="M121 240c66.274 0 120-53.726 120-120S187.274 0 121 0 1 53.726 1 120s53.726 120 120 120Z"/>
  <defs>
    <linearGradient id="b" x1="132.463" x2="158.906" y1="61.132" y2="100.516" gradientUnits="userSpaceOnUse">
      <stop stop-color="#9DA9F3"/>
      <stop offset=".99" stop-color="#8A76E8"/>
    </linearGradient>
    <linearGradient id="d" x1="150.855" x2="158.429" y1="97.531" y2="97.531" gradientUnits="userSpaceOnUse">
      <stop stop-color="#FFFAED"/>
      <stop offset="1" stop-color="#8A76E8"/>
    </linearGradient>
    <linearGradient id="e" x1="135.965" x2="143.541" y1="97.531" y2="97.531" gradientUnits="userSpaceOnUse">
      <stop stop-color="#FFFAED"/>
      <stop offset="1" stop-color="#8A76E8"/>
    </linearGradient>
    <linearGradient id="f" x1="136.395" x2="130.196" y1="93.136" y2="94.295" gradientUnits="userSpaceOnUse">
      <stop offset=".02" stop-color="#FF7B6D"/>
      <stop offset=".71" stop-color="#EDB3B2"/>
    </linearGradient>
    <linearGradient id="g" x1="133.462" x2="132.54" y1="86.003" y2="83.656" gradientUnits="userSpaceOnUse">
      <stop stop-color="#FF7B6D"/>
      <stop offset="1" stop-color="#EDB3B2"/>
    </linearGradient>
    <linearGradient id="h" x1="134.739" x2="133.661" y1="89.061" y2="85.733" gradientUnits="userSpaceOnUse">
      <stop offset=".58" stop-color="#FF7B6D"/>
      <stop offset="1" stop-color="#EDB3B2"/>
    </linearGradient>
    <linearGradient id="i" x1="135.124" x2="134.046" y1="90.608" y2="87.279" gradientUnits="userSpaceOnUse">
      <stop offset=".58" stop-color="#FF7B6D"/>
      <stop offset="1" stop-color="#EDB3B2"/>
    </linearGradient>
    <linearGradient id="j" x1="134.739" x2="133.661" y1="92.155" y2="88.827" gradientUnits="userSpaceOnUse">
      <stop offset=".58" stop-color="#FF7B6D"/>
      <stop offset="1" stop-color="#EDB3B2"/>
    </linearGradient>
    <linearGradient id="k" x1="134.351" x2="133.273" y1="93.699" y2="90.371" gradientUnits="userSpaceOnUse">
      <stop offset=".58" stop-color="#FF7B6D"/>
      <stop offset="1" stop-color="#EDB3B2"/>
    </linearGradient>
    <radialGradient id="c" cx="0" cy="0" r="1" gradientTransform="translate(147.608 83.556) scale(4.70516)" gradientUnits="userSpaceOnUse">
      <stop stop-color="#FF7B6D"/>
      <stop offset=".2" stop-color="#FA8C82"/>
      <stop offset=".51" stop-color="#F3A19C"/>
      <stop offset=".79" stop-color="#EEAEAC"/>
      <stop offset="1" stop-color="#EDB3B2"/>
    </radialGradient>
    <radialGradient id="l" cx="0" cy="0" r="1" gradientTransform="translate(110.628 32.999) scale(33.008)" gradientUnits="userSpaceOnUse">
      <stop stop-color="#8A76E8"/>
      <stop offset="1" stop-color="#271A38"/>
    </radialGradient>
    <radialGradient id="m" cx="0" cy="0" r="1" gradientTransform="translate(90.44 101.788) scale(22.6638)" gradientUnits="userSpaceOnUse">
      <stop stop-color="#F9AB2D"/>
      <stop offset="1" stop-color="#F2E93F"/>
    </radialGradient>
    <radialGradient id="n" cx="0" cy="0" r="1" gradientTransform="translate(90.44 101.788) scale(22.6638)" gradientUnits="userSpaceOnUse">
      <stop stop-color="#F9AB2D"/>
      <stop offset="1" stop-color="#F2E93F"/>
    </radialGradient>
    <radialGradient id="r" cx="0" cy="0" r="1" gradientTransform="translate(152.688 165.725) scale(16.2753)" gradientUnits="userSpaceOnUse">
      <stop stop-color="#FF7B6D"/>
      <stop offset="1" stop-color="#F9AB2D"/>
    </radialGradient>
    <radialGradient id="s" cx="0" cy="0" r="1" gradientTransform="matrix(14.6926 0 0 14.6925 157.13 189.546)" gradientUnits="userSpaceOnUse">
      <stop stop-color="#FF7B6D"/>
      <stop offset="1" stop-color="#F9AB2D"/>
    </radialGradient>
  </defs>
</svg>
