<svg xmlns="http://www.w3.org/2000/svg" width="242" height="241" fill="none"><mask id="a" width="241" height="240" x="0" y="0" maskUnits="userSpaceOnUse" style="mask-type:alpha"><path fill="#D9D9D9" d="M120.655 239.853c66.2 0 119.865-53.666 119.865-119.865 0-66.2-53.665-119.865-119.865-119.865C54.455.123.791 53.788.791 119.988c0 66.199 53.665 119.865 119.864 119.865Z"/></mask><g mask="url(#a)"><path fill="#FFFAED" d="M.667 0h240v240h-240z"/><path fill="#D9D3F8" d="M118.74 39.783H70.45v35.104h48.29V39.783Z" opacity=".6"/><path fill="#fff" d="M117.324 41.186H71.866V73.47h45.458V41.186Z" opacity=".5"/><g fill="#D9D3F8" opacity=".6"><path d="M104.155 45.046c-1.025-.076-1.989.316-2.893 1.16-.904.845-1.432 1.72-2.11 3.092-.844 1.75-1.582 3.56-2.29 5.309-.708 1.75-1.371 3.393-2.019 4.615-.648 1.221-1.13 1.644-1.25 1.704-.121.06-.754-.468-1.748-2.594-2.034-4.313-4.204-6.364-6.615-6.228-2.41.135-4.31 2.322-5.665 6.198-2.094 5.987-4.234 9.968-4.25 9.999l2.367 1.282c.09-.166 2.245-4.193 4.414-10.391.92-2.624 2.2-4.359 3.27-4.42h.06c1.115 0 2.607 1.75 3.993 4.706.919 1.93 2.215 4.148 4.173 4.148h.076c2.47-.076 3.827-3.409 5.68-8.008.693-1.72 1.416-3.484 2.215-5.143.799-1.66 1.763-2.79 2.411-2.745.648.045 2.983 1.07 6.705 12.517l2.546-.83c-3.164-9.726-5.952-14.16-9.07-14.371Z"/><path d="M78.51 55.557c.181-.77 1.718-4.992 4.656-6.62 1.085-.604 4.023-1.418 7.91 4.026l2.185-1.553c-3.57-5.007-7.835-6.802-11.406-4.826-2.215 1.236-3.706 3.408-4.565 5.021-.859 1.614-1.432 3.153-1.432 3.695h2.682a.62.62 0 0 1-.03.257ZM106.505 55.738c-.316-1.07-.738-2.232-1.808-2.443a1.595 1.595 0 0 0-1.672.739c-.136.21-.468.694-1.778 4.946-1.311 4.253-1.281 4.48-1.206 4.841l2.622-.603c.035.159.04.322.015.483.09-.468.934-3.378 1.657-5.61l1.311 4.298 2.562-.77-1.326-4.418c-.045-.211-.181-.83-.377-1.463ZM86.993 63.203l-1.34-2.322c-.649.362-1.251 1.191-2.11 3.966-.437 1.463-.754 2.82-.769 2.865l2.622.604c.528-2.338 1.341-4.781 1.733-5.219l-.136.106Z"/></g><path fill="#D9D3F8" d="M190.391 97.597h-36.266v71.936h36.266V97.597Z"/><path fill="#ECE9FB" d="M183.719 97.597h-31.095v71.936h31.095V97.597Z"/><path fill="#D9D3F8" d="M183.719 112.32h-31.095v.838h31.095v-.838ZM174.2 106.461a1.502 1.502 0 1 0-.002-3.004 1.502 1.502 0 0 0 .002 3.004ZM183.719 127.905h-31.095v.837h31.095v-.837ZM174.2 122.045a1.501 1.501 0 1 0 0-3.002 1.501 1.501 0 0 0 0 3.002ZM183.719 143.465h-31.095v.838h31.095v-.838ZM174.2 137.606a1.502 1.502 0 1 0-.002-3.004 1.502 1.502 0 0 0 .002 3.004ZM183.719 159.05h-31.095v.837h31.095v-.837ZM174.2 153.166a1.502 1.502 0 1 0-.002-3.004 1.502 1.502 0 0 0 .002 3.004ZM159.542 85.435h-2.536v12.172h2.536V85.435ZM163.259 89.473h-1.945v8.124h1.945v-8.124Z"/><path fill="#ECE9FB" d="M161.339 86.789h-1.797v10.813h1.797V86.79Z"/><path fill="#AD6247" d="m122.742 107.699 2.023 5.289-8.324 3.064-4.132-3.671 4.103-4.335 6.33-.347Z"/><path fill="#EDB3B2" d="m122.291 114.478.024-.016a.78.78 0 0 0 .22-1.081l-.737-1.113a.78.78 0 0 0-1.081-.22l-.024.015a.78.78 0 0 0-.22 1.082l.737 1.113a.78.78 0 0 0 1.081.22Z"/><path fill="#EDB3B2" d="m121.112 115.552.024-.016a.78.78 0 0 0 .22-1.081l-1.099-1.661a.781.781 0 0 0-1.081-.22l-.025.016a.782.782 0 0 0-.22 1.082l1.099 1.66a.78.78 0 0 0 1.082.22Z"/><path fill="#EDB3B2" d="m119.744 116.339.024-.015a.78.78 0 0 0 .22-1.082l-.856-1.294a.781.781 0 0 0-1.082-.22l-.024.016a.78.78 0 0 0-.22 1.081l.857 1.294a.78.78 0 0 0 1.081.22ZM118.328 117.081l.024-.016a.78.78 0 0 0 .22-1.082l-.604-.913a.781.781 0 0 0-1.082-.22l-.024.016a.78.78 0 0 0-.22 1.081l.605.914a.78.78 0 0 0 1.081.22Z"/><path fill="#EDB3B2" d="m111.037 106.688 5.433 1.445a4.708 4.708 0 0 1 2.486 1.301l2.716 2.716-4.537 4.162-3.988-2.832-3.468-1.128 1.358-5.664Z"/><path fill="#AD6247" d="m113.463 111.794-.02-.021a.78.78 0 0 0-1.103-.027l-.967.921a.78.78 0 0 0-.027 1.103l.02.021a.78.78 0 0 0 1.103.027l.967-.921a.78.78 0 0 0 .027-1.103ZM116.888 108.696a.982.982 0 1 0-1.355-1.423l-1.176 1.12a.983.983 0 0 0 1.355 1.423l1.176-1.12Z"/><path fill="#AD6247" d="M122.518 109.037a.982.982 0 1 0 .048-1.964l-6.07-.149a.982.982 0 0 0-.048 1.965l6.07.148ZM114.737 112.769l-.02-.02a.779.779 0 0 0-1.103-.027l-1.442 1.373a.78.78 0 0 0-.027 1.103l.02.021a.78.78 0 0 0 1.103.027l1.442-1.373a.782.782 0 0 0 .027-1.104Z"/><path fill="#AD6247" d="m115.768 113.975-.019-.021a.782.782 0 0 0-1.104-.027l-1.123 1.071a.779.779 0 0 0-.027 1.103l.019.021a.782.782 0 0 0 1.104.027l1.124-1.071a.78.78 0 0 0 .026-1.103Z"/><path fill="#AD6247" d="m116.739 115.246-.02-.021a.78.78 0 0 0-1.103-.027l-.793.756a.78.78 0 0 0-.027 1.103l.02.021a.78.78 0 0 0 1.103.027l.793-.756a.78.78 0 0 0 .027-1.103Z"/><path fill="#8A76E8" d="m179.762 186.8 2.833 5.173a1.04 1.04 0 0 1-.174 1.243l-6.82 6.936a2.467 2.467 0 0 1-1.792.752h-5.462c-1.301 0-1.33-.954-.896-1.417.433-.462 2.89-.722 4.566-2.947 1.012-2.486 1.098-5.058.752-6.069-.347-1.012 6.993-3.671 6.993-3.671Z"/><path fill="url(#b)" d="m170.774 192.407 9.942-5.289-16.618-36.704 3.237-31.617h-22.311v28.583c0 3.121 1.387 7.369 5.433 13.641l20.317 31.386Z"/><path fill="#271A38" d="M167.22 199.863a1.607 1.607 0 0 0-.289.809c.029.376.173.376.52.376h6.734a2.347 2.347 0 0 0 1.676-.867l7.167-7.312a.403.403 0 0 0 .058-.463 2.653 2.653 0 0 0-.723-.867c-.202.289-5.895 6.272-7.398 7.832a1.205 1.205 0 0 1-.867.376l-6.878.116Z"/><path fill="url(#c)" d="m150.849 63.327-6.732 3.888 3.07 5.318 6.733-3.887-3.071-5.319Z"/><path fill="#AD6247" d="M144.706 69.348a8.526 8.526 0 1 0 0-17.051 8.526 8.526 0 0 0 0 17.051Z"/><path fill="#D9D3F8" d="m157.856 69.464-3.006-3.468s-2.514.29-4.913 2.63a21.108 21.108 0 0 1-5.144 3.67l1.85 4.393 11.213-7.225Z"/><path fill="#271A38" d="m145.284 62.933 1.618-2.139s2.284 4.22 5.029 4.74c1.04-1.416 2.196-3.121 1.821-6.994-.376-3.873 1.127-8.901-3.064-9.884-6.329-1.474-10.173 1.647-15.953 1.705-1.531 0-1.416 1.07-1.358 1.908.058.838.376 5.722 3.006 6.531 1.705.491 5.288-.722 6.011-.78.144.173 1.127 2.485 1.127 2.485l1.243-.202.52 2.63Z"/><path fill="#AD6247" d="M149.32 61.902c.169-1.169-.463-2.227-1.411-2.364s-1.853.7-2.021 1.87c-.169 1.169.463 2.227 1.411 2.364.948.136 1.853-.7 2.021-1.87Z"/><path fill="#8A76E8" d="M160.139 194.747s.549 2.052.607 5.867a.992.992 0 0 1-.277.714.991.991 0 0 1-.706.298h-17.745a.756.756 0 0 1-.778-.72.756.756 0 0 1 .085-.379c.376-.693 1.185-1.329 2.659-1.705 3.15-.838 7.889-1.936 7.889-3.612 3.324 0 8.266-.463 8.266-.463Z"/><path fill="url(#d)" d="m168.723 119.982-7.746 75.806h-11.444l-3.671-74.332s0-9.364 12.081-9.364c12.08 0 10.78 7.89 10.78 7.89Z"/><path fill="#D9D3F8" d="m122.886 106.486-1.445.636 2.717 7.803 2.37-.665-3.642-7.774Z"/><path fill="#271A38" d="m153.498 72.704-.027-.011a5.145 5.145 0 0 0-6.755 2.701l-10.496 24.49a5.145 5.145 0 0 0 2.702 6.754l.027.012a5.144 5.144 0 0 0 6.754-2.702l10.496-24.489a5.144 5.144 0 0 0-2.701-6.755Z"/><path fill="#271A38" d="m126.065 115.243 16.763-8.064a4.791 4.791 0 0 0 2.477-2.732 4.81 4.81 0 0 0-.194-3.684 4.827 4.827 0 0 0-6.416-2.312l-16.762 8.064 4.132 8.728Z"/><path fill="url(#e)" d="M153.03 69.175c-3.96 1.3-10.462 8.612-9.191 19.479 1.272 10.866.203 15.259-1.214 20.808-1.416 5.549-.202 15.028-.202 15.028h27.658s1.243-14.768-1.33-25.403c-2.572-10.636-4.97-17.832-5.866-21.964-.896-4.133-3.497-10.058-9.855-7.948Z"/><path fill="#5A9460" d="M170.37 107.121h-23.901a1.85 1.85 0 0 0-1.849 1.85v16.236a1.85 1.85 0 0 0 1.849 1.85h23.901a1.85 1.85 0 0 0 1.849-1.85v-16.236a1.85 1.85 0 0 0-1.849-1.85Z"/><path fill="#5A9460" d="M160.746 103.48h-4.653a2.744 2.744 0 0 0-2.745 2.745v3.353a2.772 2.772 0 0 0 2.745 2.745h4.653a2.772 2.772 0 0 0 2.746-2.745v-3.353a2.749 2.749 0 0 0-2.746-2.745Zm1.503 5.635a2.05 2.05 0 0 1-2.052 2.052h-3.555a2.052 2.052 0 0 1-2.052-2.052v-2.427a2.054 2.054 0 0 1 2.052-2.052h3.555a2.052 2.052 0 0 1 2.052 2.052v2.427Z"/><path fill="url(#f)" d="M170.803 107.121h-24.767c-.782 0-1.416.634-1.416 1.416v8.777c0 .782.634 1.416 1.416 1.416h24.767c.782 0 1.416-.634 1.416-1.416v-8.777c0-.782-.634-1.416-1.416-1.416Z"/><path fill="#271A38" d="M141.411 200.441a.663.663 0 0 0-.375.635c0 .492-.029.723.838.723h18.727a.233.233 0 0 0 .26-.231c.06-.38.02-.768-.115-1.127h-19.335Z"/><path fill="#AD6247" d="M156.555 118.364a4.363 4.363 0 0 1-1.705 2.167c-.867.491-1.416 1.012-1.763 2.283-.346 1.272.347 2.11 1.272 2.168l-.058.751-.115 1.272a.893.893 0 0 0 .838.982.835.835 0 0 0 .925-.606v.144a.918.918 0 0 0 .208.68.918.918 0 0 0 .63.332.957.957 0 0 0 .982-.723.929.929 0 0 0 .81.809.954.954 0 0 0 1.011-.838v-.173a.894.894 0 0 0 .838.867.937.937 0 0 0 .681-.208.93.93 0 0 0 .331-.63c.202-.145.722-.607.838-1.966.115-1.358.578-6.733.578-6.733l-6.301-.578Z"/><path fill="#D9D3F8" d="m156.122 117.092-.174 1.705 8.67 1.59.636-2.572-9.132-.723Z"/><path fill="#271A38" d="m154.495 69.324-.028.007a5.144 5.144 0 0 0-3.659 6.288l6.258 23.686a5.145 5.145 0 0 0 6.288 3.66l.027-.008a5.144 5.144 0 0 0 3.66-6.287l-6.258-23.687a5.145 5.145 0 0 0-6.288-3.66Z"/><path fill="#271A38" d="m165.919 118.798 1.358-19.855a5.118 5.118 0 0 0-4.739-5.52 5.115 5.115 0 0 0-5.52 4.74l-1.388 19.854 10.289.781Z"/><path fill="url(#g)" d="M98.91 111.814a16.085 16.085 0 0 0-6.04-4.212c-.964-.406-2.13-.127-3.12-.355l-1.066-.33c.177-.584.431-1.294.66-2.081.228-.787.152-2.284.406-3.477.253-1.192 1.015-2.664.99-3.755-.026-1.091-.711-1.827-1.168-2.842-.457-1.015-.508-1.802-1.142-2.64-.634-.837-1.624-.938-2.335-1.573-.71-.634-.888-1.573-1.573-1.903-.685-.33-1.294.102-1.878 0-.583-.101-1.243-.685-1.903-.482l-.406.127c2.41-2.462 4.77-4.492 7.004-5.659a9.643 9.643 0 0 0-4.34-.355c-.913.101-1.826.99-2.69 1.294-.862.304-1.979.101-2.867.609-.888.507-1.573 1.928-2.334 2.537-.762.61-1.827.584-2.386 1.32a5.863 5.863 0 0 0-1.243 2.335c-.28 1.471.178 2.182.837 2.487-.206.066-.402.16-.583.279a4.009 4.009 0 0 0-.94-.077c-.735 0-1.192.203-1.496.483.279-.61.482-1.218.634-1.65.28-.863.685-1.37.736-2.055.279-3.883-3.096-4.695-4.416-1.802-1.32 2.893-1.674 4.01-2.08 4.263l-.127.05h-.076c.025-.278-.026-.456-.203-.507.152-.685 1.725-1.75 2.36-3.958.482-1.624.152-3.451-1.117-4.289-.507-.355-1.193.051-1.98.076-.786.026-.963-.456-1.547-.279-.584.178-.736 1.015-1.294 1.421-.559.406-1.117.127-1.574.559-.456.431-.837 1.624-1.37 2.36-.533.735-1.167.964-1.548 1.7-.38.736-.406 1.65-.66 2.436-.253.787-.736 1.7-.837 2.588-.102.888.254 1.726.254 2.487a3.55 3.55 0 0 1 0 .736c-.838-.102-1.751.507-2.69.457-.94-.051-2.005-.888-3.02-.736-1.015.152-1.903 1.04-2.842 1.37-.939.33-1.776.102-2.64.635a14.744 14.744 0 0 0-3.932 3.654c3.907-.28 8.627 1.395 13.677 3.781-.08.466-.198.924-.355 1.37-.28.71-.939 1.243-1.117 2.005-.177.761.077 1.548.051 2.309-.025.761-.279 1.725-.127 2.512l.076.203a3.88 3.88 0 0 0-.786.127c-.888.228-1.776.964-2.589 1.599-.812.634-1.649 1.243-2.334 2.182-.685.939-.787 1.827-1.218 2.766-.432.939-1.345 2.588-1.32 3.603.026 1.015.736 2.005 1.091 3.274.356 1.269.102 2.284.406 3.197a67.279 67.279 0 0 0 1.548 3.908 15.384 15.384 0 0 1 1.853-2.258c.558-.584 1.142-2.056 1.98-2.741.837-.685 1.598-.33 2.486-.914.431-.279 1.04-1.04 1.523-1.319.482-.279.964-.178 1.522-.406.05.939.482 1.675.66 2.639.178.964.025 2.461.355 3.375.422 1.256.957 2.47 1.599 3.629 0 0 1.142-1.294 2.791-3.096.533-.584.965-1.7 1.523-2.614 2.055 4.289 3.375 9.415 4.923 16.824.05 1.954.076 3.832.101 5.634h.863c-.025-.305-.025-.635-.025-.964.019.147.052.291.101.431a.86.86 0 0 0-.025.254h.05c.077.304.127.609.203.913l.813-.203-.153-.761h.787v-.051h.127c.02-.151.03-.304.025-.457h.203v-1.776h.102c.583-5.887 1.192-13.754 1.827-19.793.384.088.758.216 1.116.381.257.16.503.338.736.532-2.385 5.786-3.654 13.145-3.273 22.204l.862-.05c-.38-8.831.838-15.962 3.096-21.595l.559.355c.583.254 1.268.178 1.801.406.533.228 1.015.837 1.472 1.015 1.294.482 2.182.279 2.182.279.12-.845.315-1.677.584-2.487.203-.659.787-1.268.939-2.055.152-.787-.178-1.624-.254-2.487-.076-.863.152-1.548-.05-2.309-.204-.761-.914-1.218-1.244-1.929l-.076-.228a7.83 7.83 0 0 1 .913-.914c.026.051.026.102.051.153.38.786 1.117 1.294 1.523 2.055.406.761.685 1.776 1.142 2.487.456.71 1.015.964 1.395 1.497.381.533.533 1.37.838 1.802.939 1.218 1.776 1.598 1.776 1.598.44-.646.951-1.242 1.523-1.776.431-.406 1.192-.584 1.624-1.193.431-.609.507-1.497.812-2.283.304-.787.736-1.244.862-2.03.127-.787-.279-1.624-.253-2.437.025-.812.38-1.801.254-2.664-.127-.863-.787-1.218-.94-1.802-.152-.583.077-1.471-.203-2.004-.279-.533-1.04-.863-1.42-1.32-.381-.457-.914-1.624-1.498-1.878-1.522-.71-2.816.026-3.375 1.396-.761 1.903-.101 3.984-.38 4.542-.178-.152-.305-.101-.432.102-.482-.279-.025-1.574.61-4.644.092-.391.109-.796.05-1.193 4.796-1.472 9.288-2.334 13.043-1.954Zm-24.183 6.852a1.523 1.523 0 0 0-.863-.152c-.534.115-1.02.39-1.395.786a3.297 3.297 0 0 0-.812-1.725 68.179 68.179 0 0 1 1.471-8.349c1.066.888 1.853 2.03 2.741 2.741l.406.329c.223.337.497.637.812.889l-.076.126c-.187.37-.324.762-.406 1.168-.71 1.421-1.32 2.842-1.878 4.187Zm-8.4 1.522-.1.102H66.2a.135.135 0 0 1-.04.052.134.134 0 0 1-.062.024c-.02 0-.039.005-.056.013a.128.128 0 0 0-.045.038h-.026c-.05-.279-.177-.432-.406-.432-.228 0-.025-.076-.05-.127v-.431c.02-.048.029-.1.025-.152.025-.432.076-.964.127-1.523.279.787.507 1.574.736 2.36l-.051.051-.025.025Zm-6.521-18.448-.355-.812c-.406-.761-1.193-.863-2.081-1.294.133-.077.28-.129.431-.152.508-.076 1.066.253 1.65.127.583-.127 1.37-.711 2.08-.914.711-.203 1.168 0 1.752-.127a4.24 4.24 0 0 0 .405 2.665c.225.453.488.886.787 1.294-1.04.177-2.004 1.065-2.233 2.436-.558 3.096-.609 4.517-1.142 4.491-.05-.253-.152-.38-.355-.355-.05-.634 1.294-2.132 1.294-4.238 0-1.472-.787-2.791-2.233-3.121Zm3.73 11.851.305.431h-.508c0-.025-.025-.051-.05-.102.096-.099.182-.21.253-.329Zm4.39 4.745c-.355.381-.66.787-.964 1.116a24.672 24.672 0 0 0-.863-2.639c-.152-.38-.304-.71-.457-1.065-.152-.356-.304-1.092-.71-1.396-.406-.305-.61-.99-.914-1.447.086-.138.188-.266.305-.38.736-.838 1.599-1.167 2.08-2.056.483-.888.66-1.852.762-2.74a84.847 84.847 0 0 1 1.827 9.592 5.708 5.708 0 0 0-1.066 1.015Zm2.944-1.37a905.337 905.337 0 0 0-.127-9.034c.52.302 1.064.565 1.624.786a69.715 69.715 0 0 0-1.497 8.248Zm-.99-9.872c.051 3.045.102 6.344.127 9.77l-.178.051a108.213 108.213 0 0 0-2.385-11.724v-.127c.374.127.732.298 1.066.508.482.355.913.989 1.37 1.522Zm-14.54 11.902h.025c.432-.203.888-.888 1.396-1.142.507-.254 1.218-.229 1.776-.533.559-.305 1.244-1.142 1.929-1.599.258-.144.53-.263.812-.355-.61.71-1.167 1.599-1.853 2.461-.685.863-1.37 1.396-1.877 2.513a2.69 2.69 0 0 0-.229.634c-.558.355-1.066.584-1.472.381a.713.713 0 0 0-.482-.457c-.254-.482-.127-1.167-.025-1.903Zm16.266 3.425c.187.927.54 1.812 1.04 2.614-.05.381-.127.787-.203 1.218-.304-.38-.482-1.573-.939-3.679l.102-.153Zm14.033-16.316c-1.04-.051-1.954.685-2.893.812-.94.127-2.005 0-2.842.076.076-.888.228-1.802.05-2.665-.177-.862-.66-1.548-.913-2.36-.127-.431-.254-.862-.355-1.294 1.167.457 1.903 1.548 2.842 2.081.939.533 1.903.228 2.69.787.786.558 1.497 2.081 2.055 2.588.026 0 .026.025.05.051a3.097 3.097 0 0 0-.684-.076ZM78.457 93.95a.738.738 0 0 0-.456.482c-.635.355-1.472-.28-2.487-.863.431-.406.736-.761.736-.761l1.979-2.259c-.102 1.218.609 2.563.228 3.4Zm-10.353 1.522c.31-.345.575-.729.787-1.142-.229 1.37.837 3.4.888 4.34a.405.405 0 0 0-.33.456c-.685-.127-2.03-1.954-3.426-2.487.787-.43 1.497-.532 2.08-1.167ZM63.18 131.38c.025 0 .025 0 .025-.025.914-.965 1.98-1.65 3.02-2.386.558 4.695.939 10.049 1.142 15.277-1.218-5.329-2.461-9.364-4.187-12.866Zm3.832-2.994.558-.432.127.178c.406 4.365.863 13.855.913 21.773l-.228-1.041c-.178-6.674-.609-14.185-1.37-20.478Zm2.284 24.97c.127-8.07-.356-19.159-.812-24.564.414.261.805.558 1.167.888.101 5.735.101 12.561 0 18.753-.05 1.911-.127 3.764-.228 5.557a5.6 5.6 0 0 0-.127-.634Zm1.37-10.227c.101-3.933.177-7.942.203-11.952.185.228.399.433.634.609l.229.127c-.381 3.4-.71 7.359-1.066 11.216Zm10.049-19.844a4.73 4.73 0 0 0-.482-1.269c-.356-.507-1.168-.558-1.548-.964-.381-.406-.533-1.319-.99-1.599-.457-.279-1.243-.101-1.75-.253l-.458-.178c.457-1.091.965-2.233 1.498-3.4.735.507 2.258.203 3.197-.051a8.195 8.195 0 0 0-.102 1.929c.127 1.065.762 1.827 1.142 3.019.178.559.254 1.244.406 1.903l-.913.863Z"/><path fill="#B8D6F5" d="M78.864 147.01H59.375s-.71 15.708 4.771 22.788h9.947c5.482-7.08 4.771-22.788 4.771-22.788Z"/><path fill="url(#h)" d="m85.403 70.764-2.342 8.44 6.359 3.64.838-9.479-4.855-2.6Z"/><path fill="#EDB3B2" d="M96.404 99.675a3.468 3.468 0 1 0-6.636 2.017l6.934 22.824a3.468 3.468 0 1 0 6.637-2.016l-6.934-22.825Z"/><path fill="#8A76E8" d="m106.977 116.837-15.758 2.835 1.962 10.906 15.758-2.835-1.962-10.906Z"/><path fill="#D9D3F8" d="m108.292 127.959-15.75 2.803-2.486-10.809 15.75-2.803 2.486 10.809Z"/><path fill="#EDB3B2" d="m104.03 130.07.028-.005a.78.78 0 0 0 .63-.906l-.302-1.681a.782.782 0 0 0-.907-.63l-.028.005a.781.781 0 0 0-.63.906l.303 1.681a.78.78 0 0 0 .906.63ZM102.561 130.984l.028-.005a.78.78 0 0 0 .63-.906l-.469-2.605a.78.78 0 0 0-.906-.63l-.029.005a.78.78 0 0 0-.629.906l.468 2.606a.78.78 0 0 0 .907.629Z"/><path fill="#EDB3B2" d="m100.937 130.882.029-.005a.78.78 0 0 0 .63-.906l-.377-2.093a.78.78 0 0 0-.906-.63l-.029.005a.78.78 0 0 0-.63.906l.377 2.094a.78.78 0 0 0 .906.629Z"/><path fill="#EDB3B2" d="m99.323 130.845.028-.005a.78.78 0 0 0 .63-.906l-.28-1.559a.78.78 0 0 0-.907-.63l-.028.005a.78.78 0 0 0-.63.906l.28 1.559a.78.78 0 0 0 .907.63ZM98.119 66.95c0-4.023-3.254-7.283-7.269-7.283-4.014 0-7.268 3.26-7.268 7.283v2.606c0 4.023 3.254 7.283 7.269 7.283 4.014 0 7.268-3.26 7.268-7.282V66.95Z"/><path fill="url(#i)" d="M84.564 73.8s2.66-3.96 2.862-4.365c.202-.404.809-.722 1.213-.491.405.231.925-.03 1.879-.983.954-.954 1.214-3.15 2.63-2.716 1.416.433 2.659.924 4.855.028 2.197-.895 1.098-2.167 2.225-3.12 1.128-.954.925-4.451-2.918-4.22-2.37.144-3.295-.694-4.74-1.648-1.445-.953-5-.664-6.792.55-1.791 1.213-3.179.433-4.566 2.08a6.618 6.618 0 0 0-1.387 5c.173 1.098 1.098 2.312 1.85 3.006 1.213 1.156 1.069 2.08 1.184 3.179.203 1.734 1.185 2.774 1.706 3.7Z"/><path fill="#EDB3B2" d="M87.281 70.764c.862 0 1.56-.828 1.56-1.85 0-1.02-.698-1.849-1.56-1.849-.862 0-1.56.828-1.56 1.85 0 1.021.698 1.85 1.56 1.85Z"/><path fill="#F2E93F" d="M87.426 71.343a.55.55 0 1 0 0-1.099.55.55 0 0 0 0 1.099Z"/><path fill="#EDB3B2" d="M80.576 178.707c0 .203.376 17.283.376 17.283l-.376 3.959h10.751s-4.537-1.647-5.78-3.786c.347-4.19 1.965-17.976 1.965-17.976l-6.936.52Z"/><path fill="#271A38" d="M80.75 198.1a8.002 8.002 0 0 0-.81 3.526h15.665s-.232-1.763-3.613-2.139c-2.717-.289-3.988-1.127-3.988-1.127s-.983 1.792-4.942 1.011a12.657 12.657 0 0 1-2.312-1.271ZM76.241 116.109l3.41 67.396h10.52l7.08-65.893s-1.936-7.398-9.218-7.398c-7.283 0-11.792 5.895-11.792 5.895Z"/><path fill="#EDB3B2" d="M82.484 178.707c0 .203.636 17.283.636 17.283l-.405 3.959h10.751s-4.537-1.647-5.78-3.786c.347-4.19 1.734-17.976 1.734-17.976l-6.936.52Z"/><path fill="#271A38" d="M82.917 198.1a7.775 7.775 0 0 0-.838 3.526h15.664s-.231-1.763-3.612-2.139c-2.688-.289-3.989-1.127-3.989-1.127s-.982 1.792-4.942 1.011c-1.676-.635-2.283-1.271-2.283-1.271Z"/><path fill="url(#j)" d="m76.241 116.109 4.509 68.061h10.52l5.982-66.558s-1.936-7.398-9.22-7.398c-7.282 0-11.79 5.895-11.79 5.895Z"/><path fill="#8A76E8" d="M85.171 77.036c-3.468 0-8.612 3.67-7.63 15.317.897 10.838-3.178 26.386-3.178 26.386s1.156 1.965 5.462 2.081c4.306.116 4.97-3.728 10.144-1.387 3.324 1.503 8.497.491 9.277-.694-.867-1.532-3.237-6.878-2.63-11.618.607-4.74 4.277-11.098-.029-16.993-4.306-5.896-5.404-13.092-11.416-13.092Z"/><path fill="#EDB3B2" d="m109.679 112.352-17.253-3.121a3.288 3.288 0 0 1-2.018-1.517 3.293 3.293 0 0 1-.352-2.5 3.29 3.29 0 0 1 1.517-2.018 3.29 3.29 0 0 1 2.5-.352l17.254 3.93"/><path fill="#EDB3B2" d="M89.309 82.321a3.923 3.923 0 0 0-4.991-2.424 3.923 3.923 0 0 0-2.406 5l7.62 21.883a3.923 3.923 0 0 0 4.992 2.424 3.922 3.922 0 0 0 2.405-4.999l-7.62-21.884Z"/><path fill="#271A38" d="M93.12 73.25a2.283 2.283 0 0 1-1.995-1.069.148.148 0 0 1 .058-.202.148.148 0 0 1 .165.013.15.15 0 0 1 .037.045 1.966 1.966 0 0 0 1.734.895.174.174 0 1 1 0 .318Z"/></g><path stroke="#E9E9E9" stroke-miterlimit="10" d="M120.655 239.853c66.2 0 119.865-53.666 119.865-119.865 0-66.2-53.665-119.865-119.865-119.865C54.455.123.791 53.788.791 119.988c0 66.199 53.665 119.865 119.864 119.865Z"/><defs><radialGradient id="b" cx="0" cy="0" r="1" gradientTransform="rotate(-23 455.365 -352.277) scale(15.3432 35.2894)" gradientUnits="userSpaceOnUse"><stop stop-color="#8A76E8"/><stop offset="1" stop-color="#271A38"/></radialGradient><radialGradient id="c" cx="0" cy="0" r="1" gradientTransform="matrix(4.75411 0 0 4.75412 144.661 67.611)" gradientUnits="userSpaceOnUse"><stop stop-color="#271A38"/><stop offset=".95" stop-color="#AD6247"/></radialGradient><radialGradient id="d" cx="0" cy="0" r="1" gradientTransform="matrix(20.8169 0 0 42.0503 136.354 154.734)" gradientUnits="userSpaceOnUse"><stop stop-color="#8A76E8"/><stop offset="1" stop-color="#271A38"/></radialGradient><radialGradient id="e" cx="0" cy="0" r="1" gradientTransform="rotate(6.3 -876.468 1215.954) scale(22.129 40.4962)" gradientUnits="userSpaceOnUse"><stop stop-color="#8A76E8"/><stop offset="1" stop-color="#271A38"/></radialGradient><radialGradient id="f" cx="0" cy="0" r="1" gradientTransform="rotate(-6.911 1073.101 -1240.778) scale(19.774 13.1826)" gradientUnits="userSpaceOnUse"><stop stop-color="#95B553"/><stop offset="1" stop-color="#5A9460"/></radialGradient><radialGradient id="h" cx="0" cy="0" r="1" gradientTransform="translate(92.064 76.452) scale(4.96509)" gradientUnits="userSpaceOnUse"><stop stop-color="#FF7B6D"/><stop offset="1" stop-color="#EDB3B2"/></radialGradient><radialGradient id="i" cx="0" cy="0" r="1" gradientTransform="matrix(28.5594 0 0 21.7051 62.048 76.763)" gradientUnits="userSpaceOnUse"><stop offset=".01" stop-color="#8A76E8"/><stop offset="1" stop-color="#FF7B6D"/></radialGradient><radialGradient id="j" cx="0" cy="0" r="1" gradientTransform="matrix(13.0688 0 0 59.5936 71.987 146.563)" gradientUnits="userSpaceOnUse"><stop stop-color="#8A76E8"/><stop offset="1" stop-color="#271A38"/></radialGradient><linearGradient id="g" x1="39.333" x2="98.905" y1="118.75" y2="118.75" gradientUnits="userSpaceOnUse"><stop stop-color="#95B553"/><stop offset="1" stop-color="#5A9460"/></linearGradient></defs></svg>